<svg xmlns="http://www.w3.org/2000/svg" xmlns:xlink="http://www.w3.org/1999/xlink" width="1103.134" height="811.81" viewBox="0 0 1103.134 811.81">
  <defs>
    <linearGradient id="linear-gradient" x1="0.5" y1="1" x2="0.5" gradientUnits="objectBoundingBox">
      <stop offset="0" stop-color="gray" stop-opacity="0.251"/>
      <stop offset="0.54" stop-color="gray" stop-opacity="0.122"/>
      <stop offset="1" stop-color="gray" stop-opacity="0.102"/>
    </linearGradient>
  </defs>
  <g id="car-svg" transform="translate(0 -23)">
    <path id="Path_1" data-name="Path 1" d="M99.6,363.79C116.43,410,152.05,450,208.35,469.39c117,40.27,380.86,19.5,577.78-4.34C888,452.72,977.52,418.7,1042.56,370.79Z" transform="translate(-48.43 -32.93)" fill="#be2e21" opacity="0.1"/>
    <path id="Path_2" data-name="Path 2" d="M1132.28,146.09h-108c-5.13,0-9.34-2.7-9.34-6s4.21-6,9.34-6h18.68c-5.14,0-9.34-2.7-9.34-6s4.2-6,9.34-6h-13.34c-5.14,0-9.34-2.7-9.34-6s4.2-6,9.34-6H1086c-12.51-3.75-27.1-6.41-44-7.8C888.2,89.57,833.29,98,813.92,106.61a287,287,0,0,1-79,22.28C640,141.47,462.57,156.62,301.75,124c-79.93-16.19-139.34,11.17-174.95,56.9H1151.05c-1.34-13.3-5.34-25.57-12.69-36.31a12.651,12.651,0,0,1-6.08,1.5Z" transform="translate(-48.43 -32.93)" fill="#be2e21" opacity="0.1"/>
    <path id="Path_3" data-name="Path 3" d="M90.43,267.25a198.53,198.53,0,0,0,4.19,80.69l948.67,22.31c26.26-19.44,48.51-41.16,65.91-64.63Zm375.21,57.56H447c5.13,0,9.33,2.71,9.33,6s-4.2,6-9.33,6H339c-5.14,0-9.34-2.7-9.34-6s4.2-6,9.34-6h18.67c-5.13,0-9.34-2.7-9.34-6s4.21-6,9.34-6H344.25c-5.13,0-9.34-2.71-9.34-6s4.21-6,9.34-6H452.3c5.14,0,9.34,2.7,9.34,6s-4.2,6-9.34,6h13.34c5.14,0,9.34,2.7,9.34,6s-4.2,6-9.34,6Z" transform="translate(-48.43 -32.93)" fill="#be2e21" opacity="0.1"/>
    <path id="Path_4" data-name="Path 4" d="M1151.09,181.35,115.37,197.55a190.42,190.42,0,0,0-24.8,68.78H1132.94a201.592,201.592,0,0,0,15-43.84C1151.09,208.15,1152.33,194.27,1151.09,181.35ZM300.86,234.43H282.18c5.14,0,9.34,2.71,9.34,6s-4.2,6-9.34,6h-108c-5.14,0-9.34-2.7-9.34-6s4.2-6,9.34-6h18.68c-5.14,0-9.34-2.7-9.34-6s4.2-6,9.34-6H179.47c-5.14,0-9.34-2.71-9.34-6s4.2-6,9.34-6h108c5.13,0,9.33,2.7,9.33,6s-4.2,6-9.33,6h13.34c5.13,0,9.33,2.7,9.33,6S306,234.43,300.86,234.43Z" transform="translate(-48.43 -32.93)" fill="#be2e21" opacity="0.1"/>
    <rect id="Rectangle_1" data-name="Rectangle 1" width="5.57" height="307.05" transform="translate(580.73 263.67)" fill="#535f89"/>
    <path id="Path_5" data-name="Path 5" d="M640,661.08a14.53,14.53,0,0,1-17.83,0c-2.49-16.43,3.83-48.72,5.32-56l.31-1.46H635a5,5,0,0,1,1.11,1.67C641,615.82,640,661.08,640,661.08Z" transform="translate(-48.43 -32.93)" fill="#535f89"/>
    <path id="Path_6" data-name="Path 6" d="M633.49,597v6.63h-3V597a8.719,8.719,0,0,1,1.46-.12A9.82,9.82,0,0,1,633.49,597Z" transform="translate(-48.43 -32.93)" opacity="0.1"/>
    <path id="Path_7" data-name="Path 7" d="M636.06,605.32a8.5,8.5,0,0,1-4.12,1,8.15,8.15,0,0,1-4.43-1.18l.31-1.46H635A5,5,0,0,1,636.06,605.32Z" transform="translate(-48.43 -32.93)" opacity="0.1"/>
    <ellipse id="Ellipse_1" data-name="Ellipse 1" cx="6.01" cy="3.57" rx="6.01" ry="3.57" transform="translate(577.5 565.09)" fill="#dce2ed"/>
    <path id="Path_8" data-name="Path 8" d="M557.1,214.21l21.16-10.13,31.2,7.46-24.21-18.3Z" fill="#be2e21"/>
    <path id="Path_9" data-name="Path 9" d="M563.29,217.45l-6.19-3.24,21.16-10.13,31.2,7.46-5.49,2.67-25.71-5.77Z" fill="#be2e21"/>
    <path id="Path_10" data-name="Path 10" d="M563.29,217.45l-6.19-3.24,21.16-10.13,31.2,7.46-5.49,2.67-25.71-5.77Z" opacity="0.1"/>
    <path id="light-2" d="M562.45,215.06l17.03,47.72h8.44l15.77-50.68-25.43-5.91Z" fill="#fff" opacity="0.2"/>
    <path id="Path_12" data-name="Path 12" d="M592.1,249.35l-3.36,10.82-.82,2.61h-8.44l-.63-1.77-3.98-11.15,6.39-3.84Z" fill="#be2e21"/>
    <path id="light" d="M578.26,208.44l4.03,54.34h-2.81l-16.19-45.33Z" fill="#fff" opacity="0.2"/>
    <path id="Path_14" data-name="Path 14" d="M585.25,193.24l-6.99,10.84L557.1,214.21Z" opacity="0.1"/>
    <path id="Path_15" data-name="Path 15" d="M637.17,293.1l-.81,2.61h-8.45l-.63-1.77a7.07,7.07,0,0,1,5.42-2,8.11,8.11,0,0,1,4.47,1.16Z" transform="translate(-48.43 -32.93)" opacity="0.1"/>
    <path id="Path_16" data-name="Path 16" d="M633.49,296.6v4.65h-.79a9.249,9.249,0,0,1-2.22-.26V296.6Z" transform="translate(-48.43 -32.93)" opacity="0.1"/>
    <ellipse id="Ellipse_2" data-name="Ellipse 2" cx="6.01" cy="3.57" rx="6.01" ry="3.57" transform="translate(578.25 260.1)" fill="#dce2ed"/>
    <rect id="Rectangle_2" data-name="Rectangle 2" width="3.68" height="203" transform="translate(799.08 413.01)" fill="#535f89"/>
    <path id="Path_17" data-name="Path 17" d="M854.69,686.91a9.6,9.6,0,0,1-11.78,0c-1.65-10.86,2.53-32.22,3.51-37,.13-.63.21-1,.21-1h4.71a3.342,3.342,0,0,1,.74,1.1C855.34,657,854.69,686.91,854.69,686.91Z" transform="translate(-48.43 -32.93)" fill="#535f89"/>
    <path id="Path_18" data-name="Path 18" d="M850.37,644.55v4.39h-2v-4.39a5.007,5.007,0,0,1,1-.08A6.69,6.69,0,0,1,850.37,644.55Z" transform="translate(-48.43 -32.93)" opacity="0.1"/>
    <path id="Path_19" data-name="Path 19" d="M852.08,650a5.71,5.71,0,0,1-2.73.64,5.5,5.5,0,0,1-2.93-.77c.13-.63.21-1,.21-1h4.71a3.339,3.339,0,0,1,.74,1.13Z" transform="translate(-48.43 -32.93)" opacity="0.1"/>
    <ellipse id="Ellipse_3" data-name="Ellipse 3" cx="3.97" cy="2.36" rx="3.97" ry="2.36" transform="translate(796.95 612.29)" fill="#dce2ed"/>
    <path id="Path_20" data-name="Path 20" d="M783.46,380.31l13.99-6.7,20.63,4.94-16.01-12.1Z" fill="#be2e21"/>
    <path id="Path_21" data-name="Path 21" d="M787.55,382.45l-4.09-2.14,13.99-6.7,20.63,4.94-3.63,1.76-17-3.81Z" fill="#be2e21"/>
    <path id="Path_22" data-name="Path 22" d="M787.55,382.45l-4.09-2.14,13.99-6.7,20.63,4.94-3.63,1.76-17-3.81Z" opacity="0.1"/>
    <path id="light-3" d="M786.99,380.87l11.26,31.55h5.59l10.42-33.5-16.81-3.91Z" fill="#fff" opacity="0.2"/>
    <path id="Path_24" data-name="Path 24" d="M806.6,403.54l-2.22,7.16-.54,1.73h-5.59l-.41-1.17-2.63-7.37,4.22-2.54Z" fill="#be2e21"/>
    <path id="light-2-2" data-name="light" d="M797.45,376.5l2.67,35.92h-1.87l-10.7-29.97Z" fill="#fff" opacity="0.2"/>
    <path id="Path_26" data-name="Path 26" d="M802.07,366.45l-4.62,7.16-13.99,6.7Z" opacity="0.1"/>
    <path id="Path_27" data-name="Path 27" d="M852.81,443.63l-.54,1.72h-5.58l-.42-1.17a4.68,4.68,0,0,1,3.58-1.34,5.36,5.36,0,0,1,2.96.79Z" transform="translate(-48.43 -32.93)" opacity="0.1"/>
    <path id="Path_28" data-name="Path 28" d="M850.37,445.94V449h-.52a6.15,6.15,0,0,1-1.46-.17V445.9Z" transform="translate(-48.43 -32.93)" opacity="0.1"/>
    <ellipse id="Ellipse_4" data-name="Ellipse 4" cx="3.97" cy="2.36" rx="3.97" ry="2.36" transform="translate(797.45 410.65)" fill="#dce2ed"/>
    <ellipse id="Ellipse_5" data-name="Ellipse 5" cx="445" cy="44" rx="445" ry="44" transform="translate(0 746.15)" fill="#be2e21" opacity="0.1"/>
    <path id="Path_30" data-name="Path 30" d="M445.31,701.94A44.9,44.9,0,0,0,415,698.15c-17.5,3.79-44.31,1.78-46.75,1.36" transform="translate(-48.43 -32.93)" opacity="0.1"/>
    <path id="Path_31" data-name="Path 31" d="M389.32,496.14s-4.26,67.18,3.31,80.43Z" transform="translate(-48.43 -32.93)" opacity="0.1"/>
    <path id="Path_32" data-name="Path 32" d="M373.6,576.57s5.46,62.92,9.24,75.22S373.6,576.57,373.6,576.57Z" transform="translate(-48.43 -32.93)" opacity="0.1"/>
    <path id="Path_33" data-name="Path 33" d="M368.28,421.86c-3.87,1.42-20.43,35-17.11,44.95S368.28,421.86,368.28,421.86Z" transform="translate(-48.43 -32.93)" opacity="0.1"/>
    <path id="Path_34" data-name="Path 34" d="M410.26,387c-1.79.81-9.5,20.16-8,25.88S410.26,387,410.26,387Z" transform="translate(-48.43 -32.93)" opacity="0.1"/>
    <path id="Path_35" data-name="Path 35" d="M338.56,499.81c1.92,19.51,3,32.28,1.74,47.9a184.7,184.7,0,0,0,.52,36.43" transform="translate(-48.43 -32.93)" opacity="0.1"/>
    <path id="Path_38" data-name="Path 38" d="M302.78,55.93a22.21,22.21,0,0,0,4.41,5.9c1.56,1.48,3.34,2.74,4.75,4.36a34.556,34.556,0,0,1,3,4.48c3.62,5.79,8.17,10.94,12.71,16" transform="translate(-48.43 -32.93)" opacity="0.1"/>
    <path id="Path_40" data-name="Path 40" d="M361.09,254a40.939,40.939,0,0,1,7.71,5.31,13.84,13.84,0,0,1,4.48,8c.17,1.33.08,2.69.38,4a12.62,12.62,0,0,0,2.63,4.83,66.416,66.416,0,0,0,6.51,7.21" transform="translate(-48.43 -32.93)" fill="none"/>
    <path id="Path_44" data-name="Path 44" d="M325.68,228.69l4,2.11a71.08,71.08,0,0,1,11.87,7.2" transform="translate(-48.43 -32.93)" opacity="0.1"/>
    <rect id="Rectangle_3" data-name="Rectangle 3" width="6.95" height="383.28" transform="translate(217.24 181.71)" fill="#535f89"/>
    <path id="Path_47" data-name="Path 47" d="M279.22,669.61a18.12,18.12,0,0,1-22.25,0c-3.1-20.51,4.78-60.82,6.64-69.86l.39-1.83h8.9a6.59,6.59,0,0,1,1.39,2.08C280.45,613.12,279.22,669.61,279.22,669.61Z" transform="translate(-48.43 -32.93)" fill="#535f89"/>
    <path id="Path_48" data-name="Path 48" d="M271.07,589.64v8.28h-3.75v-8.29a10.86,10.86,0,0,1,1.83-.14,11.991,11.991,0,0,1,1.92.15Z" transform="translate(-48.43 -32.93)" opacity="0.1"/>
    <path id="Path_49" data-name="Path 49" d="M274.29,600a10.64,10.64,0,0,1-5.14,1.21,10.26,10.26,0,0,1-5.54-1.46l.39-1.83h8.9a6.59,6.59,0,0,1,1.39,2.08Z" transform="translate(-48.43 -32.93)" opacity="0.1"/>
    <ellipse id="Ellipse_6" data-name="Ellipse 6" cx="7.5" cy="4.45" rx="7.5" ry="4.45" transform="translate(213.22 557.97)" fill="#dce2ed"/>
    <path id="Path_50" data-name="Path 50" d="M187.74,119.97l26.42-12.65,38.95,9.31L222.88,93.79Z" fill="#be2e21"/>
    <path id="Path_51" data-name="Path 51" d="M195.47,124.01l-7.73-4.04,26.42-12.65,38.95,9.31-6.86,3.34-32.09-7.2Z" fill="#be2e21"/>
    <path id="Path_52" data-name="Path 52" d="M195.47,124.01l-7.73-4.04,26.42-12.65,38.95,9.31-6.86,3.34-32.09-7.2Z" opacity="0.1"/>
    <path id="light-1" d="M194.42,121.03l21.26,59.56h10.54l19.68-63.25-31.74-7.38Z" fill="#fff" opacity="0.2"/>
    <path id="Path_54" data-name="Path 54" d="M231.44,163.83l-4.21,13.51-1.01,3.26H215.68l-.79-2.21-4.96-13.91,7.97-4.8Z" fill="#be2e21"/>
    <path id="light-3-2" data-name="light" d="M214.16,112.77l2.068,27.888,2.962,39.932h-3.51l-20.21-56.58Z" fill="#fff" opacity="0.2"/>
    <path id="Path_56" data-name="Path 56" d="M222.88,93.79l-8.72,13.53-26.42,12.65Z" opacity="0.1"/>
    <path id="Path_57" data-name="Path 57" d="M275.67,210.27l-1,3.26H264.11l-.78-2.21c1.19-1.5,3.76-2.54,6.76-2.54a10.19,10.19,0,0,1,5.58,1.49Z" transform="translate(-48.43 -32.93)" opacity="0.1"/>
    <path id="Path_58" data-name="Path 58" d="M271.07,214.64v5.8c-.32,0-.65.05-1,.05a11.619,11.619,0,0,1-2.77-.33v-5.52Z" transform="translate(-48.43 -32.93)" opacity="0.1"/>
    <ellipse id="Ellipse_7" data-name="Ellipse 7" cx="7.5" cy="4.45" rx="7.5" ry="4.45" transform="translate(214.15 177.26)" fill="#dce2ed"/>
    <path id="rock-2" d="M951.16,707.44s9.59-.3,12.48-2.36,14.76-4.51,15.47-1.21,14.42,16.42,3.59,16.51-25.17-1.69-28.05-3.45S951.16,707.44,951.16,707.44Z" transform="translate(-48.43 -32.93)" fill="#a8a8a8"/>
    <path id="rock-3" d="M1051.3,677.36s7.38-.23,9.61-1.81,11.35-3.48,11.9-.94,11.1,12.64,2.76,12.7-19.36-1.29-21.58-2.65S1051.3,677.36,1051.3,677.36Z" transform="translate(-48.43 -32.93)" fill="#a8a8a8"/>
    <path id="rock-1" d="M980.53,801.56s17.62-.55,22.93-4.33,27.11-8.3,28.43-2.23,26.48,30.16,6.58,30.32S992.25,822.23,987,819,980.53,801.56,980.53,801.56Z" transform="translate(-48.43 -32.93)" fill="#a8a8a8"/>
    <path id="Path_66" data-name="Path 66" d="M711.21,569.46a25.76,25.76,0,0,1,17.39-2.17c10,2.17,25.45,1,26.85.78" transform="translate(-48.43 -32.93)" opacity="0.1"/>
    <path id="Path_67" data-name="Path 67" d="M743.37,451.26s2.44,38.59-1.9,46.19Z" transform="translate(-48.43 -32.93)" opacity="0.1"/>
    <path id="Path_68" data-name="Path 68" d="M752.39,497.45s-3.13,36.14-5.3,43.21S752.39,497.45,752.39,497.45Z" transform="translate(-48.43 -32.93)" opacity="0.1"/>
    <path id="Path_69" data-name="Path 69" d="M755.45,408.6c2.22.82,11.73,20.11,9.83,25.81S755.45,408.6,755.45,408.6Z" transform="translate(-48.43 -32.93)" opacity="0.1"/>
    <path id="Path_71" data-name="Path 71" d="M772.52,453.37c-1.1,11.21-1.7,18.54-1,27.51a105.415,105.415,0,0,1-.3,20.92" transform="translate(-48.43 -32.93)" opacity="0.1"/>
    <path id="Path_74" data-name="Path 74" d="M793.07,198.43a12.94,12.94,0,0,1-2.53,3.39c-.9.85-1.92,1.57-2.73,2.5a19.7,19.7,0,0,0-1.75,2.57,69.5,69.5,0,0,1-7.29,9.22" transform="translate(-48.43 -32.93)" opacity="0.1"/>
    <path id="Path_76" data-name="Path 76" d="M759.58,312.16a23.72,23.72,0,0,0-4.43,3,7.94,7.94,0,0,0-2.57,4.62c-.1.76-.05,1.54-.22,2.29a7.3,7.3,0,0,1-1.51,2.77,37.573,37.573,0,0,1-3.74,4.14" transform="translate(-48.43 -32.93)" fill="none"/>
    <path id="Path_78" data-name="Path 78" d="M827,338.76c-2.4.07-4.89.15-7,1.25-1.09.56-2,1.37-3.11,2a9.33,9.33,0,0,1-4.53,1.18" transform="translate(-48.43 -32.93)" opacity="0.1"/>
    <path id="Path_79" data-name="Path 79" d="M793.65,348.67a1.35,1.35,0,0,1,1.73.4c.43.49.66,1.13,1.11,1.61.87.95,2.3,1.06,3.59,1.1" transform="translate(-48.43 -32.93)" opacity="0.1"/>
    <path id="Path_80" data-name="Path 80" d="M779.92,297.66l-2.31,1.2a40.93,40.93,0,0,0-6.8,4.15" transform="translate(-48.43 -32.93)" opacity="0.1"/>
    <path id="Path_83" data-name="Path 83" d="M429.52,405.72c-16.42,22.14-29.94,87.27-33.73,106.9l-28.6-1.13c1.8-16.89,36.38-85.09,46-103.8C418.34,407,423.85,406.3,429.52,405.72Z" transform="translate(-48.43 -32.93)" fill="#be2e21"/>
    <rect id="Rectangle_4" data-name="Rectangle 4" width="12.68" height="17.86" transform="translate(725.73 364.93)" fill="#dce0ed"/>
    <path id="Path_84" data-name="Path 84" d="M786.84,397.86v5.81a9.761,9.761,0,0,1-2.75.37l-9.92-.08v-6.1Z" transform="translate(-48.43 -32.93)" opacity="0.1"/>
    <path id="Path_85" data-name="Path 85" d="M768.81,352.36h12a14.37,14.37,0,0,1,13.31,9c3.5,8.63,6.47,22.35-1.33,36a9.88,9.88,0,0,1-8.67,5l-15.28-.13Z" transform="translate(-48.43 -32.93)" fill="#dce0ed"/>
    <ellipse id="Ellipse_11" data-name="Ellipse 11" cx="12.82" cy="24.93" rx="12.82" ry="24.93" transform="translate(707.56 319.44)" fill="#f0f0f4"/>
    <rect id="Rectangle_5" data-name="Rectangle 5" width="12.68" height="15.63" transform="translate(613.13 365.14)" fill="#dce0ed"/>
    <path id="Path_86" data-name="Path 86" d="M674.24,398.07v5a9.778,9.778,0,0,1-2.76.37l-9.92-.09V398.1Z" transform="translate(-48.43 -32.93)" opacity="0.1"/>
    <path id="Path_87" data-name="Path 87" d="M656.21,352.58h12a14.34,14.34,0,0,1,13.3,9c3.51,8.63,6.48,22.35-1.32,36a9.9,9.9,0,0,1-8.68,5l-15.27-.14Z" transform="translate(-48.43 -32.93)" fill="#dce0ed"/>
    <ellipse id="Ellipse_12" data-name="Ellipse 12" cx="12.82" cy="24.93" rx="12.82" ry="24.93" transform="translate(594.96 319.65)" fill="#f0f0f4"/>
    <ellipse id="Ellipse_13" data-name="Ellipse 13" cx="74.79" cy="81.97" rx="74.79" ry="81.97" transform="translate(55.81 603.03)" fill="#636780"/>
    <path id="Path_89" data-name="Path 89" d="M207.05,641.07c-39.13,2.63-70.13,38.25-70.13,81.81,0,35.11,20.14,65.06,48.45,76.73,39.14-2.63,70.14-38.25,70.14-81.81C255.51,682.69,235.36,652.74,207.05,641.07Z" transform="translate(-48.43 -32.93)" opacity="0.1"/>
    <ellipse id="Ellipse_14" data-name="Ellipse 14" cx="60.7" cy="79.15" rx="60.7" ry="79.15" transform="translate(655.24 426.69)" fill="#636780"/>
    <path id="Path_90" data-name="Path 90" d="M747.41,462.93c-25.18,9.65-43.56,40-43.56,75.95,0,38.42,21,70.44,48.84,77.64,25.17-9.65,43.56-40,43.56-75.95C796.25,502.15,775.25,470.13,747.41,462.93Z" transform="translate(-48.43 -32.93)" opacity="0.1"/>
    <path id="Path_91" data-name="Path 91" d="M536.35,521.87l1.13-28.73s-5.64-12.4-11.27-13.52-18.59-1.83-18.59-1.83-10.14,41.26-3.38,53.66S536.35,521.87,536.35,521.87Z" transform="translate(-48.43 -32.93)" fill="#be2e21"/>
    <path id="Path_92" data-name="Path 92" d="M536.35,521.87l1.13-28.73s-5.64-12.4-11.27-13.52-18.59-1.83-18.59-1.83-10.14,41.26-3.38,53.66S536.35,521.87,536.35,521.87Z" transform="translate(-48.43 -32.93)" opacity="0.1"/>
    <path id="Path_93" data-name="Path 93" d="M432.41,518.77s-3.49-39.84,18.4-40.56c2.82-.09,5.64-.16,8.45-.43,15.17-1.47,56.56-4.66,51.6,4.79,0,0-9.86,34.65-3.1,43.38Z" transform="translate(-48.43 -32.93)" fill="#be2e21"/>
    <path id="Path_94" data-name="Path 94" d="M742.69,592.64l29.36.85s5.07-54.09,6.76-58.31,2.54-24.51-2.95-27.46S752,501.17,752,501.17L738.46,532l-1.05,27.89Z" transform="translate(-48.43 -32.93)" fill="#be2e21"/>
    <path id="Path_95" data-name="Path 95" d="M742.69,592.64l29.36.85s5.07-54.09,6.76-58.31,2.54-24.51-2.95-27.46S752,501.17,752,501.17L738.46,532l-1.05,27.89Z" transform="translate(-48.43 -32.93)" opacity="0.1"/>
    <path id="Path_96" data-name="Path 96" d="M671.7,502.86l-.13-6a3.47,3.47,0,0,1,3.62-3.54c14.56.61,67.52,3.15,76.79,7.88,0,0-10.14,75.42,1.06,93.38L749.24,655l-129.72-9.72Z" transform="translate(-48.43 -32.93)" fill="#be2e21"/>
    <path id="Path_97" data-name="Path 97" d="M661.56,407.61c3.6-.36,7.89-.74,12.68-1.12v7.21H661.56Z" transform="translate(-48.43 -32.93)" opacity="0.1"/>
    <path id="Path_98" data-name="Path 98" d="M786.84,414.8v.91H774.17v-5.48a54.129,54.129,0,0,1,12.67,4.57Z" transform="translate(-48.43 -32.93)" opacity="0.1"/>
    <path id="Path_99" data-name="Path 99" d="M429.46,503.18a1.18,1.18,0,0,1,.48-.75,1.689,1.689,0,0,1,.87-.08h0v.51h0a19.562,19.562,0,0,0-1.81,1.85C429.18,504.2,429.31,503.69,429.46,503.18Zm45.89-13.46a1.55,1.55,0,0,0,0-.21,44.286,44.286,0,0,1,2.19-4.68,45.5,45.5,0,0,0-2.19,4.89Zm6.84-12.94c-1.08,1.61-2.39,3.69-3.68,6.1a28.339,28.339,0,0,1,3.68-6.1ZM303.52,616.72c5.09.2,9.33.11,9.33.11C311.93,617.25,307.84,617.06,303.52,616.72Zm9.34.1c.19-.12,2.07-1.22,6.46-.78,0-.04-4.32-.19-6.46.78ZM483.67,539.9l1.86-32s-.69,16.34-.46,23.41a23,23,0,0,1-1.4,8.6Z" transform="translate(-48.43 -32.93)" fill="url(#linear-gradient)"/>
    <path id="Path_100" data-name="Path 100" d="M377.25,601.18s-.53,1.64-1.23,3.72c-1.14,3.39-2.75,8-3.3,8.43s-4.81.71-9.45,1A29.22,29.22,0,0,1,343.35,608s2.43-1.75,5-3.78,5.27-4.33,5.82-5.46c.77-1.55,5.17-4.22,7.82-5.72,1.19-.68,2-1.12,2-1.12Z" transform="translate(-48.43 -32.93)" fill="#f899a5"/>
    <path id="Path_101" data-name="Path 101" d="M371.63,615.31s-46.76-2.15-49.55-2.77-3.36-3.9-3.36-3.9c-.93-2.18,4-1.71,4-1.71h0c.5.08,6,1,11.18,1.66h0c4.15.53,8.08.89,9,.5h0c2.09-.87,6.26-.5,6.26-.5-2.37-7.84-9.55-9.71-12.62-10.15l.19-.19a15.7,15.7,0,0,1,2.67-2c9.53.39,14.57,13.53,14.57,13.53h.08c1.08.34,12.57,3.9,14.85,4.23h0C371.28,614.38,371.63,615.31,371.63,615.31Z" transform="translate(-48.43 -32.93)" fill="#f3b4b4"/>
    <path id="Path_102" data-name="Path 102" d="M347.18,619.48c-.18.59-1,1-2.34,1.11a15.188,15.188,0,0,1-2.18,0h0a49.519,49.519,0,0,1-13-2.92c-.72-.25-1.4-.47-2.06-.66h-.08a28.328,28.328,0,0,0-4.86-1c-4.24-.44-6.05.66-6.23.78h0s-4.1.09-9-.11h0a73.131,73.131,0,0,1-11.23-1.18h0c-.53-.11-1-.24-1.49-.37a10.4,10.4,0,0,1-2.51-1c-5.16-3.1,12.22-5.19,12.22-5.19a9.061,9.061,0,0,0,5.26-2.54l.18-.2.44-.44h0a23.9,23.9,0,0,1,2.11-1.64l.64-.43c3.46-2.34,8.12-4.84,8.12-4.84a19.74,19.74,0,0,0,8.61-4.92,10.208,10.208,0,0,0,1.2-1.42h0l9.61-2.48,6.62,15.9s.05.86.1,2.15C347.42,611.54,347.61,618.08,347.18,619.48Z" transform="translate(-48.43 -32.93)" fill="#f899a5"/>
    <path id="Path_103" data-name="Path 103" d="M344.84,620.59a15.188,15.188,0,0,1-2.18,0h0a49.519,49.519,0,0,1-13-2.92c-.72-.25-1.4-.47-2.06-.66h-.08a28.321,28.321,0,0,0-4.86-1c-4.24-.44-6.05.66-6.23.78h0s-4.1.09-9-.11h0a73.131,73.131,0,0,1-11.23-1.18h0c-.53-.11-1-.24-1.49-.37a11.905,11.905,0,0,1,1.93-.08h0c.49.06,6.05.74,11.23,1.17h0c4.18.35,8.12.54,9,.11h0c2.05-1,6.23-.78,6.23-.78-2.7-7.73-10-9.28-13.05-9.59.06-.07.13-.13.18-.2h0a16.509,16.509,0,0,1,2.55-2.08h.2c9.41.15,14.95,12.87,14.95,12.87h.08c1.09.29,12.73,3.36,15,3.59h0A5.73,5.73,0,0,1,344.84,620.59Z" transform="translate(-48.43 -32.93)" opacity="0.1"/>
    <path id="Path_104" data-name="Path 104" d="M345.39,621.78s-46.81-.12-49.62-.61-3.53-3.76-3.53-3.76c-1-2.13,3.89-1.87,3.89-1.87h0c.49.06,6,.74,11.23,1.18h0c4.17.34,8.12.53,9,.11h0c2-1,6.23-.78,6.23-.78-2.71-7.73-10-9.28-13.05-9.59l.18-.2a17.089,17.089,0,0,1,2.58-2.11c9.54,0,15.15,12.88,15.15,12.88h.08c1.09.28,12.73,3.35,15,3.58h0C345,620.86,345.39,621.78,345.39,621.78Z" transform="translate(-48.43 -32.93)" fill="#f3b4b4"/>
    <path id="Path_105" data-name="Path 105" d="M377.25,601.18s-.53,1.64-1.23,3.72c-.28-.19-9.49-6.32-13-10.34a7.608,7.608,0,0,1-1.06-1.49c1.19-.68,2-1.12,2-1.12Z" transform="translate(-48.43 -32.93)" opacity="0.1"/>
    <path id="Path_106" data-name="Path 106" d="M404.19,580.9l-1.66,5.37-15.9,8.66s-4.3,3.05-5,4.49a4.48,4.48,0,0,1-2.54,2,35.256,35.256,0,0,0-2.2,3.06s-9.44-6.26-13-10.34c-1.1-1.26-1.63-2.32-1.13-2.91,2.08-2.5,14.56-11.48,14.56-11.48s7.62-10,7.95-9.82,4.16-3.51,6.41-5.6l1.54-1.44Z" transform="translate(-48.43 -32.93)" fill="#bdd3e8"/>
    <path id="Path_107" data-name="Path 107" d="M480,472.79l-15.48,27.38L458.84,511l-30.25-4.41.68-1.45,2.56-5.37,1.17-2.46.18-.33,3.35-6.07.19-.25,2.43-3.44,4.89-6.91a4.42,4.42,0,0,0,1.6-.42,3.78,3.78,0,0,0,1.83-2.08c1.73-4.28-1.44-12.51-1.44-12.51s11.48-28,15.46-12.59c2.94,11.43,11.67,16.95,16,19a22,22,0,0,0,2.51,1.08Z" transform="translate(-48.43 -32.93)" fill="#f899a5"/>
    <path id="Path_108" data-name="Path 108" d="M428,566.92v2.65s10,9.57,8.68,17.37,1.47,17.52,1.47,17.52l10.06-.72-1.52-35.64Z" transform="translate(-48.43 -32.93)" fill="#bdd3e8"/>
    <path id="Path_109" data-name="Path 109" d="M448.21,603.74l-10.06.72s-2.79-9.71-1.47-17.52S428,569.57,428,569.57v-2.65l18.69,1.18.1,2.32Z" transform="translate(-48.43 -32.93)" opacity="0.05"/>
    <path id="Path_110" data-name="Path 110" d="M392.51,565.89a84,84,0,0,0-8.82,9.57c-3.54,4.71-9.57,11.48-9.57,11.48l-7.21,4.27-3,2.91c-1.1-1.26-1.63-2.32-1.13-2.91,2.08-2.5,14.56-11.48,14.56-11.48s7.62-10,7.95-9.82,4.16-3.51,6.41-5.6Z" transform="translate(-48.43 -32.93)" opacity="0.05"/>
    <path id="Path_111" data-name="Path 111" d="M347.28,608.08a9.721,9.721,0,0,0-.83.8s-.15,4.7-3.83-6.34-12.81-8.39-12.81-8.39a.17.17,0,0,1-.07-.2c0-.3.53-.82,1.2-1.42h0l9.61-2.48,6.62,15.9S347.23,606.79,347.28,608.08Z" transform="translate(-48.43 -32.93)" opacity="0.1"/>
    <path id="Path_112" data-name="Path 112" d="M381.19,545.28l-5.6.15-3.83,5.45s-6.33,6.77-8.24,8.46-14.28,13.32-17.81,19.36c0,0-3.24,1.62-3.24,3.24s-6.18,6.33-6.18,6.33-6.48,4.41-5.6,5c0,0,9.13-2.65,12.81,8.39s3.83,6.33,3.83,6.33a8.589,8.589,0,0,1,2.21-1.74c.88-.32,5.07-6.35,6.36-6.5a6.36,6.36,0,0,0,2.62-1.18l7.5-7.36,7.22-4.27s6-6.77,9.56-11.48a84.7,84.7,0,0,1,8.83-9.57Z" transform="translate(-48.43 -32.93)" fill="#bdd3e8"/>
    <path id="Path_113" data-name="Path 113" d="M353.22,580.91s10,4.85,9.57,5.88S353.22,580.91,353.22,580.91Z" transform="translate(-48.43 -32.93)" opacity="0.1"/>
    <path id="Path_114" data-name="Path 114" d="M361.12,579.73s.78,4.37,4.76,4.17S361.12,579.73,361.12,579.73Z" transform="translate(-48.43 -32.93)" opacity="0.1"/>
    <path id="Path_115" data-name="Path 115" d="M347.18,592s.59,2.5,4.27,2.94S347.18,592,347.18,592Z" transform="translate(-48.43 -32.93)" opacity="0.1"/>
    <path id="Path_116" data-name="Path 116" d="M384.65,580.91s4.85,2,5.29,4.78S384.65,580.91,384.65,580.91Z" transform="translate(-48.43 -32.93)" opacity="0.1"/>
    <path id="Path_117" data-name="Path 117" d="M372.72,591.21c1.88.81,7.29,6.88,7.18,7.54S372.72,591.21,372.72,591.21Z" transform="translate(-48.43 -32.93)" opacity="0.1"/>
    <path id="Path_118" data-name="Path 118" d="M381.33,586.9a3.25,3.25,0,0,1,3.32.7C386,589,381.33,586.9,381.33,586.9Z" transform="translate(-48.43 -32.93)" opacity="0.1"/>
    <path id="Path_119" data-name="Path 119" d="M417,538.81s-18.77-6.08-17.33,0S417,548.3,417,548.3Z" transform="translate(-48.43 -32.93)" fill="#f899a5"/>
    <path id="Path_120" data-name="Path 120" d="M480,472.79l-15.48,27.38L458.84,511l-30.25-4.41.68-1.45a17.462,17.462,0,0,1,2.41-2.7,10,10,0,0,1,.15-2.67,5.19,5.19,0,0,1,1.35-2.79l.12-.11c1.42-1.25,2.77-4.48,3.42-6.21.26-.69.4-1.15.4-1.15l2-2.29,6.49-7.33,1.83-2.08,1.72-1.94L443,484.63s-2.94,5.3-3.09,6-5,7.21-5,7.21-8.24,7.22,6.48,7.36,23.7-14.2,23.7-14.2l12.42-19.24A22,22,0,0,0,480,472.79Z" transform="translate(-48.43 -32.93)" opacity="0.1"/>
    <path id="Path_121" data-name="Path 121" d="M398.36,537.49l-5.77-.4L379.56,536v-2l18.7,1.17Z" opacity="0.1"/>
    <path id="Path_122" data-name="Path 122" d="M477.46,470.21s2.65,2.94,5.3,3.09c0,0-4.86,5.15-6.63,10.16,0,0-8.26,13.9-2.35,18.69s9.34,5.74,9.34,5.74l-1.79,32s4.37,22,6,23.64,1.18,5.3,1.18,5.3-1.07,3.68.05,5,1.42,8.1,1.42,8.1-6.62-3.39-8-3.39-5-6.92-5-6.92l-36-2.5-15.83-1.32,2.5-44s-7.21-11.83,2.65-20.93c0,0-.38-3.81,1.62-5.57s3.83-7.36,3.83-7.36l12.07-13.64h0l-6.18,8.79s-2.95,5.3-3.09,6-5,7.22-5,7.22-8.24,7.21,6.48,7.36,23.7-14.28,23.7-14.28Z" transform="translate(-48.43 -32.93)" fill="#e6ebef"/>
    <path id="Path_123" data-name="Path 123" d="M465.68,528.21s5.12,3.75,10.6,3.9S465.68,528.21,465.68,528.21Z" transform="translate(-48.43 -32.93)" opacity="0.1"/>
    <path id="Path_124" data-name="Path 124" d="M472.3,516.32s4.05-2,6.33-.33S472.3,516.32,472.3,516.32Z" transform="translate(-48.43 -32.93)" opacity="0.1"/>
    <path id="Path_125" data-name="Path 125" d="M470.39,523s.26,2.36,6.26,2.65S470.39,523,470.39,523Z" transform="translate(-48.43 -32.93)" opacity="0.1"/>
    <path id="Path_126" data-name="Path 126" d="M482.31,473.3l1.26.67a28.1,28.1,0,0,0,7.94,1.69c5.08.44,9.5,5.3,10.38,9.93.22,1.16.4,2.71.55,4.37a89.74,89.74,0,0,1-.28,18c-.48,4.23-1,9-.71,9.7.44,1.32-2.43,21.86-2.43,21.86s-.66,16.78-4.86,18.33-27.6,1.54-27.6,1.54l-9.93-17.22,23.18,1.1a22.681,22.681,0,0,0,2.87-11.92c-.22-7.07.44-23.41.44-23.41s-14-3-11.16-13.93S482.31,473.3,482.31,473.3Z" transform="translate(-48.43 -32.93)" fill="#f899a5"/>
    <path id="Path_127" data-name="Path 127" d="M438.15,604.46s-9.35,3.09-13,1.47-11.59-7.8-11.59-7.8-5.1-5-9.95-10.59l-.62-.72h0c-4.2-4.89-8-10-8-12.53a10.65,10.65,0,0,0-.39-3.11,13,13,0,0,0-2-4.07,12.152,12.152,0,0,0-1.72-1.94l-15.31-19.73s4.42-4.71,4.42-6,5.3-8.53,12.07-4.7c2.85,1.6,9.66,7.57,16.6,13.94,9.55,8.76,19.32,18.29,19.32,18.29s.69.74,1.7,1.89c2.59,3,7.27,8.65,7.64,11.51C437.86,584.29,438.15,604.46,438.15,604.46Z" transform="translate(-48.43 -32.93)" fill="#bdd3e8"/>
    <path id="Path_128" data-name="Path 128" d="M429.7,568.81c-7.25,7.22-18.16,16.9-26.08,18.73l-.21.05-.41-.77h0l-8.36-15.64-2.12-4,.11-.11,16.06-18.47c9.55,8.76,19.32,18.29,19.32,18.29S428.69,567.66,429.7,568.81Z" transform="translate(-48.43 -32.93)" opacity="0.05"/>
    <path id="Path_129" data-name="Path 129" d="M488.31,582.34v3.35s4.64,16.38-3.75,21c-4.24,2.35-13.27,2.91-21.17,2.89a22.42,22.42,0,0,1-22.13-18.45,13.4,13.4,0,0,1-.09-4.75s-3.75-26.83-4.64-27c0,0-21.09,24.15-34,26.93l-10.9-20.38,17.41-20s12.92-20.53,16.67-22.41,7.51-7.14,7.51-7.14,15.13-12.62,25.17,8.69,16.56,38.52,19,44.91c0,0,3.54,7.24,5.74,7.22h.07a5.16,5.16,0,0,1,5.11,5.14Z" transform="translate(-48.43 -32.93)" fill="#bdd3e8"/>
    <path id="Path_130" data-name="Path 130" d="M436.09,558.24a21.82,21.82,0,0,0,4.52-7.73c1.67-4.86-.5,4.93-4.08,8.83Z" transform="translate(-48.43 -32.93)" opacity="0.1"/>
    <path id="Path_131" data-name="Path 131" d="M416.44,436.73c.15,1.4,1.2,2.65,2.28,3.82a73,73,0,0,0,7.38,6.95c1.12.93,2.33,1.9,2.7,3.11a4.89,4.89,0,0,1-.18,2.7,46.292,46.292,0,0,1-3.92,9.74,6,6,0,0,0-1.09,3.32c.27,2.62,4,4.09,6.72,5.82,3.57,2.31,5.63,5.8,5.5,9.28-.22,5.43-5.37,10.12-6.58,15.48a26,26,0,0,0,9.73-2c2.86-1.35,5-3.7,4.88-6.2a1.75,1.75,0,0,1,.15-1.15,2.47,2.47,0,0,1,1.4-.72c2.67-.65,5.93-.44,7.89-1.93s1.51-4.11.67-6.2c-2.28-5.72-5.58-11.22-7.57-17a12.2,12.2,0,0,1-.86-6.08c.36-2,1.59-3.91,2.64-5.81a37,37,0,0,0,4.38-13.34c.32-2.64.31-5.39-1.08-7.83-1.55-2.75-4.84-4.93-8.73-5.78-7.51-1.65-11.51,2-17.38,4.43C421,429.2,416,432.53,416.44,436.73Z" transform="translate(-48.43 -32.93)" fill="#4b3648"/>
    <path id="Path_132" data-name="Path 132" d="M429.25,496.5c.61,0,1.22-.07,1.83-.12,1.25-5.31,6.32-10,6.54-15.35.13-3.48-1.94-7-5.5-9.29-2.68-1.73-6.45-3.2-6.72-5.81a6.05,6.05,0,0,1,1.09-3.33,46.287,46.287,0,0,0,3.92-9.74,4.891,4.891,0,0,0,.18-2.7c-.37-1.21-1.58-2.18-2.7-3.1a74.269,74.269,0,0,1-7.38-7c-1.08-1.16-2.13-2.41-2.28-3.81-.46-4.2,4.51-7.54,8.93-9.39,4.59-1.94,8-4.56,12.94-4.82-5.88-.38-9.59,2.66-14.73,4.82-4.42,1.85-9.39,5.19-8.93,9.39.15,1.4,1.2,2.65,2.28,3.81a74.269,74.269,0,0,0,7.38,7c1.12.92,2.33,1.89,2.7,3.1a4.89,4.89,0,0,1-.18,2.7,46.288,46.288,0,0,1-3.92,9.74,6.05,6.05,0,0,0-1.09,3.33c.27,2.61,4,4.08,6.72,5.81,3.57,2.31,5.63,5.81,5.5,9.29C435.61,486.45,430.46,491.15,429.25,496.5Z" transform="translate(-48.43 -32.93)" opacity="0.1"/>
    <circle id="Ellipse_16" data-name="Ellipse 16" cx="23.52" cy="23.52" r="23.52" transform="translate(377.59 390.02)" fill="#f899a5"/>
    <path id="Path_133" data-name="Path 133" d="M432.06,436.44c-1.84-.58-3.77-1.22-5-2.85s-1.45-4.57.12-5.91a10.342,10.342,0,0,1,2.83-1.23c3.95-1.75,4.62-7.88,7.3-11.71a8.78,8.78,0,0,1,8.1-3.9,39,39,0,0,1,4.89,1.44c3.91,1.06,8.09.22,12.06.94,7.8,1.43,13.77,8.77,17,17,1.49,3.79,2.53,7.8,3.71,11.75a155.638,155.638,0,0,0,6.4,17.4,12.231,12.231,0,0,0,2.19,3.69c2.5,2.55,6.92,2.36,8.46,5.79.85,1.9.45,4.23.17,6.38a50.761,50.761,0,0,0,1.84,21.63c1.69,5.36,4.92,10.78,9.85,11.55-1.89,2.64-5.59,2.39-7.93.5s-3.74-4.93-5.31-7.7a49,49,0,0,0-4.53-6.65,9.35,9.35,0,0,0-3.43-2.95c-3.36-1.36-6.93,1.42-9.93,3.84-2.47,2-5.14,3.87-8.09,4.25a6.5,6.5,0,0,1-7.15-4.39c-1.13-3.83,1.15-9-1.34-11.78-.9-1-2.22-1.37-3.3-2.14-3.18-2.26-3.57-7.43-3.14-11.81s1.33-9.08-.37-12.93a15.57,15.57,0,0,0-4-5,88,88,0,0,0-24.16-15.86" transform="translate(-47.43 -32.93)" fill="#4b3648"/>
    <path id="Path_136" data-name="Path 136" d="M802,561.62l-19.16.28-39.58-71.93-6.61-12.01,5.07-30.42,3.9,7.36Z" fill="#dce0ed"/>
    <path id="Path_137" data-name="Path 137" d="M628.76,473.17,620.88,485,597.3,453.12l-10.79-14.6,6.48-8.73,4.96,6.02Z" fill="#dce0ed"/>
    <path id="Path_138" data-name="Path 138" d="M646.38,468.73c0,.61.07,1.24.11,1.87l-.76,15.45-10.79-14.6,6.48-8.73Z" transform="translate(-48.43 -32.93)" opacity="0.1"/>
    <path id="Path_139" data-name="Path 139" d="M745.62,454.9l-2.36,35.07-6.61-12.01,5.07-30.42Z" opacity="0.1"/>
    <path id="Path_140" data-name="Path 140" d="M624,491.17s-9.46-70.65,25-81.22a8.742,8.742,0,0,1,1.35-.28c7.93-.95,81.8-9.47,120.15.65,0,0,26.2,3.95,25.92,18L784.8,600.46H765.93l6.19-113.8s9-49.58-5.91-53-82.82-9-106.76-2.25c0,0-17.47-3.95-14.65,39.15l-1.13,23.1Z" transform="translate(-48.43 -32.93)" fill="#dce0ed"/>
    <path id="Path_141" data-name="Path 141" d="M681.42,512.15a10.88,10.88,0,0,0-4.44-9.72c-5.28-4-21.55-12.67-21.55-12.67l-5.28.42-15.84,39.3,1.05,83.45,28.52,35.28Z" transform="translate(-48.43 -32.93)" fill="#be2e21"/>
    <path id="Path_142" data-name="Path 142" d="M681.42,512.15a10.88,10.88,0,0,0-4.44-9.72c-5.28-4-21.55-12.67-21.55-12.67l-5.28.42-15.84,39.3,1.05,83.45,28.52,35.28Z" transform="translate(-48.43 -32.93)" opacity="0.1"/>
    <path id="Path_143" data-name="Path 143" d="M567.62,599.62l.56-85.64s-2.53-33.24,17.33-33.8c0,0,46.83.34,67.18,6.95a4.54,4.54,0,0,1,2.56,6.56c-4,7.05-10.88,25.72-14.18,73.6v51.34Z" transform="translate(-48.43 -32.93)" fill="#be2e21"/>
    <path id="Path_144" data-name="Path 144" d="M617.99,621.41l-85.22-1.99h-.08l-41.88-.97,4.85-55.99,23.24.85,73.95,16.48,22.6,35.49Z" fill="#be2e21"/>
    <path id="Path_145" data-name="Path 145" d="M617.99,621.41l-85.22-1.99h-.08l-41.88-.97,4.85-55.99,23.24.85,73.95,16.48,22.6,35.49Z" opacity="0.1"/>
    <path id="Path_146" data-name="Path 146" d="M617.99,621.41l-85.22-1.99-1.4-37.52,61.48-2.11,22.6,35.49Z" fill="#be2e21"/>
    <path id="Path_147" data-name="Path 147" d="M581.12,652.35l-41.88-1,4.86-56s13.1,20.92,35.7,19.44Z" transform="translate(-48.43 -32.93)" fill="#fff" opacity="0.1"/>
    <path id="Path_148" data-name="Path 148" d="M881.7,697.64c-1.69,16.06-13.1,13.52-13.1,13.52l-2.13-.19-21.11-1.92.85-24.93s11.49-.78,21.41,1.29C875.54,687.05,882.45,690.51,881.7,697.64Z" transform="translate(-48.43 -32.93)" fill="#dce0ed"/>
    <path id="Path_149" data-name="Path 149" d="M588.46,454.27S549.59,472,546.77,477.08s-22,27-22,27l8.31,14,38.45-30.57Z" transform="translate(-48.43 -32.93)" fill="#4c4981"/>
    <path id="Path_150" data-name="Path 150" d="M558.84,544.92l-18-2.69L527.6,557.85S509.15,567,507,571s-8.86,15.72-11.82,15.81-5.73,4.41-5.75,6.12-11.27,21.35-14.06,22.48-7.63,7.51-7.51,8.77S457.36,638,457.36,638s-18,28.17-20.68,29.07S423.63,686.16,421,688.32s-10,4.1-9.1,5.85,19,26.49,17.9,33.5c0,0,13.47-10.66,14-13.94S461,693.15,461,693.15l87.31-90.68,16.83-57.15Z" transform="translate(-48.43 -32.93)" fill="#ceddf9"/>
    <path id="Path_151" data-name="Path 151" d="M607.18,574.05s3.59,41.22-8.31,47.46-20,5.52-22.29,8.27-16.24,5.18-17.72,7.68-40.57,24.35-40.57,24.35S491.55,677.57,487.36,681s-27,13.46-30.89,18.18-28.31,20.19-28.31,20.19-7.15-22-15.37-23.93c0,0,19.76-3.89,20.93-7s7.07-6.45,7.07-6.45,28.13-16.32,29-20,7.8-8.92,7.8-8.92,11.17-15.27,15.28-16.74,28.48-26.49,28.48-26.49,16.57-8.76,18.41-11.64S573,579,573,579l-35.79-44.47,11.32-3.48,33.53,9,6,10.87Z" transform="translate(-48.43 -32.93)" opacity="0.1"/>
    <path id="Path_152" data-name="Path 152" d="M609.2,574.65s3.6,41.22-8.3,47.46-20,5.53-22.3,8.27-16.24,5.19-17.72,7.68-40.56,24.36-40.56,24.36-26.74,15.75-30.94,19.15-27,13.47-30.89,18.19-28.31,20.18-28.31,20.18S423,698,414.81,696c0,0,19.77-3.88,20.93-7s7.07-6.46,7.07-6.46,28.13-16.32,29-20,7.81-8.93,7.81-8.93,11.17-15.27,15.28-16.73,28.47-26.5,28.47-26.5,16.57-8.76,18.41-11.64-14.2-41-14.2-41l11.68-22.7,11.32-3.47,33.53,9,6,10.87Z" transform="translate(-48.43 -32.93)" fill="#ceddf9"/>
    <path id="Path_153" data-name="Path 153" d="M649,466.77l-27.35,19s-33.05-12.26-20-17.18c8.56-3.23,11.64-19.9,12.74-31,.58-5.78.61-10,.61-10s37.29-.06,30.43,11.84a18.73,18.73,0,0,0-2.28,10.76C643.67,459,649,466.77,649,466.77Z" transform="translate(-48.43 -32.93)" fill="#fec2be"/>
    <path id="Path_154" data-name="Path 154" d="M643.09,450.2a26.22,26.22,0,0,1-28.76-12.57c.58-5.78.61-10,.61-10s37.29-.06,30.43,11.84A18.73,18.73,0,0,0,643.09,450.2Z" transform="translate(-48.43 -32.93)" opacity="0.1"/>
    <path id="Path_155" data-name="Path 155" d="M662.43,431.5a26.28,26.28,0,1,1,.59-2.41C662.86,429.89,662.67,430.7,662.43,431.5Z" transform="translate(-48.43 -32.93)" fill="#fec2be"/>
    <path id="Path_156" data-name="Path 156" d="M609.91,456.11s-4.59,0-4.88,6.53-4.93,6.05-4.93,6.05l-21.56,22.39s-9.68,23.18-9.6,24.12-2.18,4.86-1.67,6.84-.2,8-2,7.47-4.8,1.32-4.76,4.27-15.15,12-14.53,14.2,43.25,24.85,43.25,24.85l17.74,13.75,16.56-30.85,13.8-42.51L645,488.54l6.35-7.1-2.92-16.66s-2.62-7.21-4.76-6.2-10,9.5-17.38,10.24-11.69,1.64-13.41,0S600.71,466,609.91,456.11Z" transform="translate(-48.43 -32.93)" opacity="0.1"/>
    <path id="Path_157" data-name="Path 157" d="M611.39,453.94s-5.46.16-5.76,6.68-4.93,6.05-4.93,6.05l-21.56,22.39s-9.68,23.17-9.59,24.12-2.19,4.85-1.68,6.84-.19,8-2,7.47-4.81,1.32-4.77,4.27-15.15,12-14.52,14.2,43.24,24.85,43.24,24.85l17.75,13.75,16.56-30.86,13.8-42.51,7.74-24.67,6.34-7.1-2.92-16.66s-2.62-7.21-4.76-6.2-10,9.5-17.37,10.23-11.69,1.65-13.41,0S612.86,463.28,611.39,453.94Z" transform="translate(-48.43 -32.93)" opacity="0.1"/>
    <path id="Path_158" data-name="Path 158" d="M611.19,454.61s-5.47.16-5.76,6.68-4.93,6.06-4.93,6.06l-21.56,22.38s-9.68,23.18-9.59,24.12-2.19,4.86-1.68,6.84-.19,8-2,7.47-4.8,1.32-4.76,4.27-15.15,12-14.52,14.2,43.24,24.86,43.24,24.86l17.74,13.74,16.56-30.85,13.81-42.51,7.73-24.68,6.35-7.1-2.92-16.66s-2.62-7.21-4.76-6.19-10,9.49-17.37,10.23-11.7,1.65-13.42,0S612.66,464,611.19,454.61Z" transform="translate(-48.43 -32.93)" fill="#fff"/>
    <path id="Path_159" data-name="Path 159" d="M611.38,454.58a40.531,40.531,0,0,1-7.55-1.48c-2.64-1-12.41-.22-12.41-.22s-11.22.69-13.29,3.93-11,20.77-14.06,21.87-21.15,30.22-24.85,32.78-19.64,33.79-19.64,33.79,11.78-5.56,17.17,2.58c.14.21.28.42.41.65,5.18,9.08,10,2.08,10,2.08s17.15-15.62,18.52-18.34,11.51-23.18,14.12-28.83,24.71-33.56,25.45-34.8S611.38,454.58,611.38,454.58Z" transform="translate(-48.43 -32.93)" opacity="0.1"/>
    <path id="Path_160" data-name="Path 160" d="M611.38,454.58a63.279,63.279,0,0,1-8.89-1.88c-2.65-1-12.42-.22-12.42-.22s-11.22.69-13.29,3.92-11,20.78-14.06,21.87-21.15,30.22-24.85,32.79-19.64,33.79-19.64,33.79,11.78-5.56,17.18,2.58c.13.2.27.42.4.65,5.18,9.07,10,2.08,10,2.08s17.16-15.63,18.52-18.34,11.51-23.18,14.12-28.83,24.71-33.56,25.45-34.81S611.38,454.58,611.38,454.58Z" transform="translate(-48.43 -32.93)" fill="#4c4981"/>
    <path id="Path_161" data-name="Path 161" d="M644.21,455.62s14.18,10.29,16,13.41,20.39,12.88,20.39,12.88,7,12.92,5.95,17.57-2.16,9.08-1.25,11.56,1.47,2.46.12,5.73-.88,3.59,1,6.53-28,12-28,12-4,.62-4.43,2.53-23.34,52.32-26.65,60.33-13.77,40-22.55,40.45-2,.12-2,.12,1.35-26-4.05-35S604,560,604,560,639.49,457.88,644.21,455.62Z" transform="translate(-48.43 -32.93)" opacity="0.1"/>
    <path id="Path_162" data-name="Path 162" d="M644.21,455.62s15.53,10.7,17.35,13.81S682,482.31,682,482.31s7,12.92,5.95,17.57-2.16,9.09-1.25,11.56,1.47,2.46.12,5.73-.89,3.59,1,6.54-28,12-28,12-4,.63-4.43,2.53S632,590.58,628.67,598.58,614.9,638.53,606.12,639s-2,.12-2,.12,1.35-26-4.05-35,5.35-43.75,5.35-43.75S639.49,457.88,644.21,455.62Z" transform="translate(-48.43 -32.93)" fill="#4c4981"/>
    <path id="Path_163" data-name="Path 163" d="M662.23,558.55s-31.46,7-32.44,9-27,17.51-13.35,25S651.54,582,651.54,582l17-10.85Z" transform="translate(-48.43 -32.93)" fill="#fec2be"/>
    <path id="Path_164" data-name="Path 164" d="M676.29,516.61c.51.15,11.47,7.1,11.47,7.1s5.16,17.14,6.29,21.34,4,11.67,3.81,13.07,3.12,9.19-2.16,12.75-10.82,3-13.36,5.38-20.05,10-22.26,10.6,10.92-26.11-5.29-30.22c0,0,11.61,1.09,12.21-.94s1.27-7.33-.9-9.26-11.54-11.16-11.54-11.16Z" transform="translate(-48.43 -32.93)" fill="#4c4981"/>
    <path id="Path_166" data-name="Path 166" d="M615.23,430.61c1.36.4,2.57-1,3.2-2.24,1.58-3.25,2-6.93,3.34-10.29a21.23,21.23,0,0,1,6.68-9,4.061,4.061,0,0,1,1.45-.83c1.38-.36,2.74.58,4.14.84,3.2.6,6-2.37,9.28-2.59a6.94,6.94,0,0,1,5.93,3.1,11.74,11.74,0,0,1,1.91,6.62,3.993,3.993,0,0,0,.74,2.92c.94.92,2.49.54,3.78.84,2.28.54,3.34,3.07,4.42,5.15s3.25,4.26,5.42,3.36a20.761,20.761,0,0,1,1.85-1c1.23-.41,2.7.26,3.8-.42,1.4-.86,1-3,.09-4.43s-2-3-1.43-4.53a6.14,6.14,0,0,1,1.51-1.94,9.61,9.61,0,0,0-.58-13.19c-.89-.8-1.93-1.42-2.8-2.24-1.75-1.64-2.68-3.94-4-6a18.279,18.279,0,0,0-6.37-6,9.1,9.1,0,0,0-3.7-1.29c-1.81-.14-3.59.54-5.4.72-6.06.61-11.27-4.18-17.2-5.54a4.88,4.88,0,0,0-4.07.48c-1.18.92-1.43,2.57-2,4-1.19,3.06-4.07,5.2-7.13,6.38-3.53,1.35-8,2.08-9.47,5.55-1.28,3,.38,6.44-.29,9.6-.52,2.47-2.37,4.4-3.8,6.48s-2.48,4.88-1.24,7.08a6.3,6.3,0,0,0,3.24,2.53c1.66.68,5.36.32,6.48,1.42S613.11,430,615.23,430.61Z" transform="translate(-51.43 -30.93)" fill="#9a5e7f"/>
    <path id="Path_167" data-name="Path 167" d="M674.47,546.66c.6.06,11.53,2,14.1,5.68S674.47,546.66,674.47,546.66Z" transform="translate(-48.43 -32.93)" opacity="0.1"/>
    <path id="Path_168" data-name="Path 168" d="M669,535s11.92,2.7,13.3,3.85S669,535,669,535Z" transform="translate(-48.43 -32.93)" opacity="0.1"/>
    <path id="Path_169" data-name="Path 169" d="M672.92,505.57s8.77,3.84,9.77,6.22S672.92,505.57,672.92,505.57Z" transform="translate(-48.43 -32.93)" opacity="0.1"/>
    <path id="Path_176" data-name="Path 176" d="M574.21,477.3s-8.61,12.85-7.58,15.54S574.21,477.3,574.21,477.3Z" transform="translate(-48.43 -32.93)" opacity="0.1"/>
    <path id="Path_177" data-name="Path 177" d="M575.47,519.17s4.57,1.91,6.24,3.7S575.47,519.17,575.47,519.17Z" transform="translate(-48.43 -32.93)" opacity="0.1"/>
    <path id="Path_180" data-name="Path 180" d="M881.7,697.64c-1.69,16.06-13.1,13.52-13.1,13.52l-2.13-.19a21.571,21.571,0,0,1-3.36-12.06c0-5.59,1.78-10.53,4.51-13.5C875.54,687.05,882.45,690.51,881.7,697.64Z" transform="translate(-48.43 -32.93)" opacity="0.1"/>
    <path id="Path_181" data-name="Path 181" d="M555.22,487.22c-19.29,0-34.92,21.13-34.92,47.19s15.63,47.18,34.92,47.18,34.93-21.13,34.93-47.18S574.52,487.22,555.22,487.22Zm-4.93,84.51c-14.7,0-26.61-15.32-26.61-34.23s11.91-34.22,26.61-34.22,26.62,15.32,26.62,34.22S565,571.73,550.29,571.73Z" transform="translate(-48.43 -32.93)" fill="#636780"/>
    <path id="Path_182" data-name="Path 182" d="M508.48,515.99l16.34,16.05,5.91-14.37-23.66-13.8Z" fill="#636780"/>
    <path id="Path_183" data-name="Path 183" d="M532.57,357.07l14.22,1.73,5.28,6.27-8,36-17,58-11.16,39.82-7.84,24.18-5,32-5,22-15,15-30.5-36-5-12-12-24.5,31-14.5,34-3,16-41,13-47.5Z" fill="#be2e21"/>
    <path id="Path_184" data-name="Path 184" d="M244.82,528.66,226.23,684.72l234.08-9.86-27.04-76.62-45.07-29.3,103.1,1.69.56-42.81-41.69-9.02-83.94-6.76-63.1-2.81-60.28,19.71" fill="#be2e21"/>
    <path id="Path_185" data-name="Path 185" d="M226.23,684.72l234.08-9.86-27.04-76.62-45.07-29.3,103.1,1.69.56-42.81-41.69-9.02-83.94-6.76-63.1-2.81-60.28,19.71" opacity="0.1"/>
    <path id="Path_186" data-name="Path 186" d="M613.06,717.11c0,38.78-12.89,74.08-48.64,70.22-45.09-1-48.63-31.44-48.63-70.22s21.77-67.64,48.63-67.64S613.06,678.33,613.06,717.11Z" transform="translate(-48.43 -32.93)" fill="#636780"/>
    <path id="Path_187" data-name="Path 187" d="M613.34,717.18c0-30-13.05-54.1-31.41-63.44-23.58,4.48-41.7,31.6-41.7,67,0,31.78,2.38,58,28.06,66.93C601.32,788.84,613.34,754.63,613.34,717.18Z" transform="translate(-48.43 -32.93)" opacity="0.1"/>
    <path id="Path_188" data-name="Path 188" d="M610.57,623.32l-13.75,15.75,24.75-4.25,18.5-17,16.5-33,23.25-14.25,57,7.75,52.75,2,19.47-17.29-21.72-2.96-22-.5-55.25-1.25-65.75-1.75-13.5,36-10.25,24.75Z" fill="#be2e21"/>
    <path id="Path_189" data-name="Path 189" d="M848.18,720.46c-1.13,1.69-38,7.33-38,7.33l-102,18.59L533,748.91l-20.56-17.47-10.8,1.92-.44.08L356.92,759.05l-2.35-.33-39.32-5.61L109.88,723.84l2.3-29.81,1.36-17.6,2.81-36.53,2-9.58,18.29-1.68,8.54-.78,133.29-12.23,17.43-1.6,9.77-.89,95.21-13,138.87,3.38.56-42.82,54.93-169c12.11,2,11.83,10.14,11.83,10.14L560.3,561l-.57,97.75c97.25,9.82,100.39-11.37,115.77-4.23l18.6-59.43,163.37.85C864,603.84,848.18,720.46,848.18,720.46Z" transform="translate(-48.43 -32.93)" fill="#be2e21"/>
    <path id="Path_190" data-name="Path 190" d="M394.4,598.8l51.83,111.27,17.46,5.63,4.23-18.03-19.44-61.69-20-35.77Z" fill="#be2e21"/>
    <path id="Path_191" data-name="Path 191" d="M394.4,598.8l51.83,111.27,17.46,5.63,4.23-18.03-19.44-61.69-20-35.77Z" opacity="0.15"/>
    <ellipse id="Ellipse_17" data-name="Ellipse 17" cx="93.87" cy="106.48" rx="93.87" ry="106.48" transform="translate(261.79 621.85)" fill="#636780"/>
    <path id="Path_192" data-name="Path 192" d="M442.58,654.43c-49.12,3.42-88,49.68-88,106.26,0,45.61,25.28,84.52,60.81,99.68,49.12-3.42,88-49.68,88-106.26C503.39,708.5,478.11,669.59,442.58,654.43Z" transform="translate(-53.43 -25.93)" opacity="0.1"/>
    <path id="Path_193" data-name="Path 193" d="M157.48,568.07,152.83,590l-14.22,67.11-61.13-5.92s-3.66-11.26,5.92-15.49c0,0,3.14-38.13,14.44-50.14a11.391,11.391,0,0,1,4.43-3.09Z" transform="translate(-48.43 -32.93)" fill="#be2e21"/>
    <path id="Path_194" data-name="Path 194" d="M152.83,590l-14.22,67.11-61.13-5.92s-3.66-11.26,5.92-15.49c0,0,3.14-38.13,14.44-50.14Z" transform="translate(-48.43 -32.93)" fill="#fff" opacity="0.1"/>
    <path id="Path_195" data-name="Path 195" d="M295.23,574C303.11,587.22,284,709.19,284,709.19L133.82,684.4l5.35-106.76c3.1-19.15,14.37-21.4,14.37-21.4,53-26.76,174.64-32.4,174.64-32.4,111,4.22,212.11,36.9,212.11,36.9C414.1,541.31,295.23,574,295.23,574Z" transform="translate(-48.43 -32.93)" fill="#be2e21"/>
    <path id="Path_196" data-name="Path 196" d="M284,709.19,133.82,684.4l5.35-106.76c3.1-19.15,14.37-21.4,14.37-21.4S263.11,545.81,295.23,574C303.11,587.22,284,709.19,284,709.19Z" transform="translate(-48.43 -32.93)" opacity="0.1"/>
    <path id="Path_197" data-name="Path 197" d="M268.09,702.15,142.55,681,147,589.91c2.59-16.34,12-18.26,12-18.26s91.62-8.9,118.47,15.14C284.1,598.08,268.09,702.15,268.09,702.15Z" transform="translate(-48.43 -32.93)" fill="#be2e21"/>
    <ellipse id="Ellipse_19" data-name="Ellipse 19" cx="17.18" cy="31.27" rx="17.18" ry="31.27" transform="translate(190.15 564.18)" fill="#dce0ed"/>
    <path id="Path_198" data-name="Path 198" d="M260,603.28s-7,1.12-3.38,10.42,4.22,14.08,4.22,14.08,7,3.67,6.76-8.45S260,603.28,260,603.28Z" transform="translate(-48.43 -32.93)" fill="#f0f0f4"/>
    <ellipse id="Ellipse_21" data-name="Ellipse 21" cx="16.06" cy="29.22" rx="16.06" ry="29.22" transform="translate(101.16 552.83)" fill="#dce0ed"/>
    <path id="Path_199" data-name="Path 199" d="M167.9,590.88s-7,1.13-3.38,10.43,4.23,14.08,4.23,14.08,7,3.66,6.76-8.45S167.9,590.88,167.9,590.88Z" transform="translate(-48.43 -32.93)" fill="#f0f0f4"/>
    <path id="Path_200" data-name="Path 200" d="M238,600.74c-1.12,11.55-6.76,97.18-6.76,97.18l-9.56-1.6-5.31-.87-7.08-1.19-.86-.14-27.89-4.65,5.51-90.83A11.36,11.36,0,0,1,197.59,588a8.091,8.091,0,0,1,.85,0c1.93.17,4,.37,6.17.61.91.1,1.84.2,2.77.32,2.68.32,5.45.71,8.16,1.15,1.38.24,2.74.49,4.09.75,2.27.45,4.47.95,6.5,1.52,1.37.38,2.68.79,3.88,1.24C235.05,595.41,238.34,597.76,238,600.74Z" transform="translate(-48.43 -32.93)" opacity="0.1"/>
    <path id="Path_201" data-name="Path 201" d="M197.59,588l-5.46,102-3.1-.28,5.41-101.41a11.292,11.292,0,0,1,3.15-.31Z" transform="translate(-48.43 -32.93)" fill="#be2e21"/>
    <path id="Path_202" data-name="Path 202" d="M207.38,588.92,202.27,692h-4.79l7.13-103.41C205.52,588.7,206.45,588.8,207.38,588.92Z" transform="translate(-48.43 -32.93)" fill="#be2e21"/>
    <path id="Path_203" data-name="Path 203" d="M219.63,590.82l-8.06,103.44h-3.11v-.14l7.07-104C216.92,590.31,218.28,590.56,219.63,590.82Z" transform="translate(-48.43 -32.93)" fill="#be2e21"/>
    <path id="Path_204" data-name="Path 204" d="M230,593.58l-8.29,102.74v.2l-5.35-.57v-.5l9.72-103.11C227.5,592.72,228.81,593.13,230,593.58Z" transform="translate(-48.43 -32.93)" fill="#be2e21"/>
    <path id="Path_205" data-name="Path 205" d="M115.44,673.14s-10.35-53.45,13.31-56.2,101.41,3,99.08,24.93S223,697.22,223,697.22l-16.05-3.59s12-50.28-6.76-52.18-64.86-7.19-64.86-7.19-12.47-2.11-5.28,42Z" transform="translate(-48.43 -32.93)" opacity="0.1"/>
    <path id="Path_206" data-name="Path 206" d="M115.44,678.21s-10.35-56.83,13.31-59.58,101.41,3,99.08,24.93S223,698.91,223,698.91l-16.05-3.59s12-50.28-6.76-52.18S135.3,636,135.3,636s-12.47,1.27-5.28,45.43Z" transform="translate(-48.43 -32.93)" fill="#dce0ed"/>
    <path id="Path_207" data-name="Path 207" d="M533,748.91l-20.84-.28c-15.21-67-40.29-108.73-40.29-108.73C463.39,635.39,371,636,371,636c-9.58,1.69-12.11,32.12-12.11,32.12s8.17,7,.28,11.55c-3.52,2-15.12,2.39-28.48,1.7-16.58-.86-35.9-3.38-45.88-6.49-18-5.64-3.67-16.06-3.67-16.06s2.54-3.38,4.23-22a75.249,75.249,0,0,1,10.28-30.69c.78-1.29,1.27-2,1.27-2a9.65,9.65,0,0,1,3.29-2.06c23.88-10,140.93-.48,140.93-.48l43.38,13.81c1.2.48,3.05,3.54,5.33,8.43C503.56,653.22,533,748.91,533,748.91Z" transform="translate(-48.43 -32.93)" fill="#be2e21"/>
    <path id="Path_208" data-name="Path 208" d="M533,748.91l-20.84-.28c-15.21-67-40.29-108.73-40.29-108.73C463.39,635.39,371,636,371,636c-9.58,1.69-12.11,32.12-12.11,32.12s8.17,7,.28,11.55c-3.52,2-15.12,2.39-28.48,1.7-16.58-.86-35.9-3.38-45.88-6.49-18-5.64-3.67-16.06-3.67-16.06s2.54-3.38,4.23-22a75.249,75.249,0,0,1,10.28-30.69c.78-1.29,1.27-2,1.27-2a9.65,9.65,0,0,1,3.29-2.06c23.88-10,140.93-.48,140.93-.48l43.38,13.81c1.2.48,3.05,3.54,5.33,8.43C503.56,653.22,533,748.91,533,748.91Z" transform="translate(-48.43 -32.93)" opacity="0.1"/>
    <path id="Path_209" data-name="Path 209" d="M489.85,623.82c-40-15.56-150.4-7.3-150.4-7.3-11.72-10-33.77-10.68-43.8-10.41.78-1.29,1.27-2,1.27-2a9.649,9.649,0,0,1,3.29-2.06c23.88-10,140.93-.48,140.93-.48l43.38,13.81C485.72,615.87,487.57,618.93,489.85,623.82Z" transform="translate(-48.43 -32.93)" fill="#be2e21"/>
    <path id="Path_210" data-name="Path 210" d="M345.93,620.74C343.4,629.47,333,664.41,333,664.41a147.831,147.831,0,0,0-2.29,16.91c-16.58-.86-35.9-3.38-45.88-6.49-18-5.64-3.67-16.06-3.67-16.06s2.54-3.38,4.23-22a74.87,74.87,0,0,1,11.55-32.68,9.65,9.65,0,0,1,3.29-2.06C315.87,605.75,347.85,614.13,345.93,620.74Z" transform="translate(-48.43 -32.93)" fill="#be2e21"/>
    <path id="Path_211" data-name="Path 211" d="M345.93,620.74C343.4,629.47,333,664.41,333,664.41a147.831,147.831,0,0,0-2.29,16.91c-16.58-.86-35.9-3.38-45.88-6.49-18-5.64-3.67-16.06-3.67-16.06s2.54-3.38,4.23-22a74.87,74.87,0,0,1,11.55-32.68,9.65,9.65,0,0,1,3.29-2.06C315.87,605.75,347.85,614.13,345.93,620.74Z" transform="translate(-48.43 -32.93)" fill="#fff" opacity="0.1"/>
    <path id="Path_212" data-name="Path 212" d="M371.71,398.91c-11.2,1.69-16.06,24.93-16.06,24.93L325.23,525.46l215.06,35.28,54.93-169C544.73,368.91,371.71,398.91,371.71,398.91Zm173,108.59s-1.27,9.72-9.51,10.57l-139.43-5.45-28.6-1.13-9.59-.37h-.68s-10.57,1.9-8.88-7c0,0,11.62-84.5,32.12-90.84,0,0,2.13-.45,5.86-1.15,5.86-1.11,15.64-2.85,27.16-4.44,5.16-.71,10.67-1.39,16.34-2,15.49-1.58,32.14-2.43,45.92-1.1,0,0,102.67-9.51,95.28,13.31.02.03-21.53,82.63-25.97,89.6Z" transform="translate(-48.43 -32.93)" fill="#be2e21"/>
    <path id="Path_213" data-name="Path 213" d="M357.6,511.12h-.68s-10.57,1.9-8.88-7c0,0,11.62-84.5,32.12-90.84,0,0,2.13-.45,5.86-1.15C378.58,426.65,354.7,476.36,357.6,511.12Z" transform="translate(-48.43 -32.93)" fill="#be2e21"/>
    <path id="Path_214" data-name="Path 214" d="M357.6,511.12h-.68s-10.57,1.9-8.88-7c0,0,11.62-84.5,32.12-90.84,0,0,2.13-.45,5.86-1.15C378.58,426.65,354.7,476.36,357.6,511.12Z" transform="translate(-48.43 -32.93)" opacity="0.1"/>
    <path id="Path_215" data-name="Path 215" d="M376.53,719.55a13.6,13.6,0,0,1-12.73,7.14l-4.31-.19-40.61-1.75-14.64-.63L290.72,723,112.18,694l1.36-17.6,20.53,2.94,8.5,1.22,126.05,18L285.21,701l8.05,1.15,34.09-.25,36.9-.27a13.88,13.88,0,0,1,5.44,1,13.23,13.23,0,0,1,7.15,6.79,11.11,11.11,0,0,1-.31,10.13Z" transform="translate(-48.43 -32.93)" opacity="0.1"/>
    <path id="Path_216" data-name="Path 216" d="M376.53,721.24a13.6,13.6,0,0,1-12.73,7.14l-59.56-2.57-13.52-1.13-190.4-30.89-15-2.43L77.2,690c-16.05-3.38-11.26-19.44-11.26-19.44,1.12-7.33,28.73-14.09,37.74-13.8,6.06.19,6.9,9.52,6.8,15.63a40.292,40.292,0,0,1-.32,5.21l8.91,1.28L293.26,703.8l71-.52a13.64,13.64,0,0,1,12.59,7.84,11.11,11.11,0,0,1-.32,10.12Z" transform="translate(-48.43 -32.93)" fill="#dce0ed"/>
    <path id="Path_217" data-name="Path 217" d="M90.72,666.94s7.61,9.29,19.44,10.7C110.16,677.64,105.37,667.22,90.72,666.94Z" transform="translate(-48.43 -32.93)" opacity="0.1"/>
    <path id="Path_218" data-name="Path 218" d="M88.75,693.14s-25.07-.57-25.07,13,15.78,15.78,15.78,15.78L303.4,765l63.66,1.12s22.25-17.74-.85-25.63L302,742.15,88.47,703S94.1,695.39,88.75,693.14Z" transform="translate(-48.43 -32.93)" opacity="0.1"/>
    <path id="Path_219" data-name="Path 219" d="M367.06,767.78l-63.66-1.12L104.28,728.34l-14.57-2.81-10.25-2s-15.78-2.26-15.78-15.78c0-9.7,12.92-12.15,20.21-12.76,2.87-.23,4.86-.19,4.86-.19,5.35,2.25-.28,9.85-.28,9.85l7.77,1.43L302,743.84l64.22-1.69C389.31,750,367.06,767.78,367.06,767.78Z" transform="translate(-48.43 -32.93)" fill="#dce0ed"/>
    <path id="Path_220" data-name="Path 220" d="M107.62,682.15l13.24-5.92,6.76-.28-.56,56.9-20.84-4.22L97.48,723l-4.22-23.66s1.69-9.86,2.53-10.7S107.62,682.15,107.62,682.15Z" transform="translate(-48.43 -32.93)" fill="#dce0ed"/>
    <path id="Path_221" data-name="Path 221" d="M107.62,682.15l13.24-5.92,6.76-.28-.56,56.9-20.84-4.22L97.48,723l-4.22-23.66s1.69-9.86,2.53-10.7S107.62,682.15,107.62,682.15Z" transform="translate(-48.43 -32.93)" opacity="0.1"/>
    <path id="Path_222" data-name="Path 222" d="M104.28,728.34l.24.29-14.64-2.82-.17-.28C82,713.08,81.33,703,83.89,695c2.87-.23,4.86-.19,4.86-.19,5.35,2.25-.28,9.85-.28,9.85l7.77,1.43C95.72,717.25,102.85,726.58,104.28,728.34Z" transform="translate(-48.43 -32.93)" opacity="0.1"/>
    <path id="Path_223" data-name="Path 223" d="M125.94,676a74.952,74.952,0,0,0-6.87,3c-9.48,4.56-15.33,9.68-18.75,14.87l-15-2.43c6.49-13.48,22-19.64,22-19.64l3.14.71Z" transform="translate(-48.43 -32.93)" opacity="0.1"/>
    <path id="Path_224" data-name="Path 224" d="M109,671.73s-41.12,16.34-17.46,54.08l14.65,2.82s-29-33.24,21.4-52.68Z" transform="translate(-48.43 -32.93)" fill="#dce0ed"/>
    <path id="Path_225" data-name="Path 225" d="M158.63,657.11l15.21-.56-2.54,61.12-24.51-4.5-10.42-5.07-4.79-12.12-3.38-12.11,8.17-10.99,9.3-6.19Z" fill="#dce0ed"/>
    <path id="Path_226" data-name="Path 226" d="M158.63,657.11l15.21-.56-2.54,61.12-24.51-4.5-10.42-5.07-4.79-12.12-3.38-12.11,8.17-10.99,9.3-6.19Z" opacity="0.1"/>
    <ellipse id="Ellipse_22" data-name="Ellipse 22" cx="7.32" cy="12.39" rx="7.32" ry="12.39" transform="translate(149.62 676.27)" fill="#dce0ed"/>
    <path id="Path_227" data-name="Path 227" d="M152.2,756.16c-2.11-10.77-10.35-13.1-10.35-13.1S126,738.42,125.58,756c0,0,.21,10.78,7.4,14.16l.42,12s.63,11.2-5.71,10.14-5.49-11-5.49-11-3.38-10.56-11.62-5.07c0,0-1.9,5.92,2.33,8.88,2.46,1.72,2.55,5.24,2.2,7.88a11.46,11.46,0,0,0,2.64,9.18,10.65,10.65,0,0,0,10.16,3.64,15.76,15.76,0,0,0,8.8-5.06,23.08,23.08,0,0,0,6.1-15.39l.31-15.46S154.31,766.94,152.2,756.16Zm-13,10.88a12.342,12.342,0,1,0,.01-.04Z" transform="translate(-48.43 -32.93)" fill="#dce0ed"/>
    <path id="Path_228" data-name="Path 228" d="M135.52,738.41a4,4,0,0,0-2,5.55c1.66,3.11,3.65,7.13,3.46,8.19-.32,1.79,3.7.32,4.22-.11s7.82,0,8.24-5-3.9-7.61-3.9-7.61l1.69-10.88-10-.84.11,9.93Z" transform="translate(-48.43 -32.93)" fill="#636780"/>
    <path id="Path_229" data-name="Path 229" d="M135.52,738.41a4,4,0,0,0-2,5.55c1.66,3.11,3.65,7.13,3.46,8.19-.32,1.79,3.7.32,4.22-.11s7.82,0,8.24-5-3.9-7.61-3.9-7.61l1.69-10.88-10-.84.11,9.93Z" transform="translate(-48.43 -32.93)" opacity="0.1"/>
    <path id="Path_230" data-name="Path 230" d="M138.26,738.21s3.38,11.62,1.9,12S138.26,738.21,138.26,738.21Z" transform="translate(-48.43 -32.93)" opacity="0.1"/>
    <path id="Path_231" data-name="Path 231" d="M142.06,735.46s3.38,11.62,1.9,12S142.06,735.46,142.06,735.46Z" transform="translate(-48.43 -32.93)" opacity="0.1"/>
    <path id="Path_232" data-name="Path 232" d="M182.56,700.46l-5.64,34.93s-7-.95-10.82-1.78a7.8,7.8,0,0,1-2.42-.75c-.2-.2-.61-.18-1.16-.07h0c-1.88.38-5.22,1.93-5.87.62a.931.931,0,0,0-.19-.27h0c-.66-.72-1.94-.2-3.18,0a2.7,2.7,0,0,1-2-.26c-1-.7-3.15.42-4.87.79-1.09.24-2,.19-2.46-.79a2.27,2.27,0,0,0-1.68-1.2h0c-1.62-.41-3.89-.13-5.2-.41a1.188,1.188,0,0,1-1-.65c-.26-.76-1.71-1.12-3.26-1.42-1.89-.36-3.92-.63-4.07-1.39,0-.26-.23-.37-.51-.38a17.447,17.447,0,0,0-3.08.76h0c-.84.22-1.55.22-1.75-.38s-1.19-.6-2.3-.33c-.89.22-1.88.57-2.64.75s-1.18.18-1.26-.15c-.28-1.12-3.94,1.42-4.78-.84S100,710,115,690.6c0,0,4,.28,7.12.84a11.17,11.17,0,0,1,3,.84h0c1.07.61,3.36.48,5.43.63a7,7,0,0,1,3,.72,2,2,0,0,1,.85.9c.47,1.07,1.55,1.29,2.73,1.23,1.6-.1,3.38-.7,4-.38h.06c1.18.51,5.6,0,6.35.75l.06.07c.32.47,2,0,3.82-.26h0c1.37-.18,2.75-.2,3.5.55a3.82,3.82,0,0,0,2.74.81,16.132,16.132,0,0,1,3.59.14,1.531,1.531,0,0,1,.71.45c.71.89,2.43.77,4,.85a4.08,4.08,0,0,1,2.24.56,2.1,2.1,0,0,0,.81.34c2.16.5,6.79-.34,6.79-.34Z" transform="translate(-48.43 -32.93)" fill="#636780"/>
    <path id="Path_233" data-name="Path 233" d="M121.1,727.46c-.89.22-1.88.57-2.64.75-11.44-17.75-1.81-31.23,3.61-36.77a11.17,11.17,0,0,1,3,.84C113.56,705.54,118.9,722.1,121.1,727.46Z" transform="translate(-48.43 -32.93)" opacity="0.1"/>
    <path id="Path_234" data-name="Path 234" d="M128.24,727.41a17.463,17.463,0,0,0-3.08.76h0c-9.79-17.31.28-30.26,5.37-35.25a7,7,0,0,1,3,.72C122.58,705.62,125.83,720.53,128.24,727.41Z" transform="translate(-48.43 -32.93)" opacity="0.1"/>
    <path id="Path_235" data-name="Path 235" d="M137.07,731.25a1.188,1.188,0,0,1-1-.65c-.26-.76-1.71-1.12-3.26-1.42-8.59-15.68-.91-27.73,4.3-33.41,1.6-.1,3.38-.7,4-.38h.06C129.09,709,134.94,726.2,137.07,731.25Z" transform="translate(-48.43 -32.93)" opacity="0.1"/>
    <path id="Path_236" data-name="Path 236" d="M146.42,733.65c-1.09.24-2,.19-2.46-.79a2.27,2.27,0,0,0-1.68-1.2h0c-10-17.47.2-30.53,5.29-35.5l.06.07c.32.47,2,0,3.82-.26C137.21,710.34,144.53,729.42,146.42,733.65Z" transform="translate(-48.43 -32.93)" opacity="0.1"/>
    <path id="Path_237" data-name="Path 237" d="M156.44,733.13c-.66-.72-1.94-.2-3.18,0-10.44-17.34-.85-30.44,4.43-35.79a16.129,16.129,0,0,1,3.59.14C149.09,710.59,154.12,727.3,156.44,733.13Z" transform="translate(-48.43 -32.93)" opacity="0.1"/>
    <path id="Path_238" data-name="Path 238" d="M166.1,733.61a7.8,7.8,0,0,1-2.42-.75c-.2-.2-.61-.18-1.16-.07h0c-9.25-15.84-1.87-28.07,3.44-34a4.08,4.08,0,0,1,2.24.56,2.1,2.1,0,0,0,.81.34C158.89,712.73,164,728.45,166.1,733.61Z" transform="translate(-48.43 -32.93)" opacity="0.1"/>
    <ellipse id="Ellipse_23" data-name="Ellipse 23" cx="45.91" cy="67.6" rx="45.91" ry="67.6" transform="translate(339.83 665.81)" fill="#636780"/>
    <path id="Path_239" data-name="Path 239" d="M775.22,634.26s33,87.89,31.27,93.38c0,0,13.94,8.45,17.32,6.34s.43-41,.43-41l-6.34-34.22-7.19-20.28Z" transform="translate(-48.43 -32.93)" fill="#be2e21"/>
    <path id="Path_240" data-name="Path 240" d="M775.22,634.26s33,87.89,31.27,93.38c0,0,13.94,8.45,17.32,6.34s.43-41,.43-41l-6.34-34.22-7.19-20.28Z" transform="translate(-48.43 -32.93)" opacity="0.15"/>
    <g id="aro" transform="translate(-5 7)">
      <ellipse id="Ellipse_25" data-name="Ellipse 25" cx="33.38" cy="54.79" rx="33.38" ry="54.79" transform="translate(355.81 670.91)" fill="#f0f0f4"/>
      <ellipse id="Ellipse_26" data-name="Ellipse 26" cx="3.94" cy="6.76" rx="3.94" ry="6.76" transform="translate(391.3 682.18)" fill="#636780"/>
      <ellipse id="Ellipse_27" data-name="Ellipse 27" cx="3.94" cy="6.76" rx="3.94" ry="6.76" transform="translate(407.08 741.34)" fill="#636780"/>
      <ellipse id="Ellipse_28" data-name="Ellipse 28" cx="3.94" cy="6.76" rx="3.94" ry="6.76" transform="translate(364.54 713.17)" fill="#636780"/>
      <ellipse id="Ellipse_29" data-name="Ellipse 29" cx="3.94" cy="6.76" rx="3.94" ry="6.76" transform="translate(376.09 752.6)" fill="#636780"/>
      <ellipse id="Ellipse_30" data-name="Ellipse 30" cx="3.94" cy="6.76" rx="3.94" ry="6.76" transform="translate(412.71 704.72)" fill="#636780"/>
    </g>
    <ellipse id="Ellipse_31" data-name="Ellipse 31" cx="11.55" cy="16.06" rx="11.55" ry="16.06" transform="translate(378.69 718.75)" fill="#636780"/>
    <path id="Path_241" data-name="Path 241" d="M812,751.73c0,50.87-16.9,97.18-63.8,92.11-59.15-1.27-63.8-41.24-63.8-92.11S712.94,663,748.18,663,812,700.85,812,751.73Z" transform="translate(-48.43 -32.93)" fill="#636780"/>
    <path id="Path_242" data-name="Path 242" d="M812.35,751.81c0-39.38-17.12-71-41.21-83.22-30.93,5.88-54.7,41.46-54.7,87.87,0,41.69,3.13,76,36.81,87.8C796.58,845.82,812.35,801,812.35,751.81Z" transform="translate(-48.43 -32.93)" opacity="0.1"/>
    <path id="Path_244" data-name="Path 244" d="M836.91,731.87s-8.45,7.18-13.1,2.11c0,0-11.41-91.27-25.77-91.69l-49.44-.42s-5.91,2.53-8.45,13.52l-32,91L533,748.91l-13.38-28,144.93.42v-.06c.78-2.81,25-89.28,41.27-100h0a7,7,0,0,1,1.79-.87s60.42-8,80.28-2.54c0,0,20.7,4.65,25.77,11v.05c.68.71,8.52,9.54,10.95,35Z" transform="translate(-48.43 -32.93)" fill="#be2e21"/>
    <path id="Path_245" data-name="Path 245" d="M836.91,731.87s-8.45,7.18-13.1,2.11c0,0-11.41-91.27-25.77-91.69l-49.44-.42s-5.91,2.53-8.45,13.52l-32,91L533,748.91l-13.38-28,144.93.42v-.06c.78-2.81,25-89.28,41.27-100h0a7,7,0,0,1,1.79-.87s60.42-8,80.28-2.54c0,0,20.7,4.65,25.77,11v.05c.68.71,8.52,9.54,10.95,35Z" transform="translate(-48.43 -32.93)" opacity="0.1"/>
    <path id="Path_246" data-name="Path 246" d="M729.59,632.15c-4.23,8-40.56,106.9-40.56,106.9L664.52,721.3v-.06c.78-2.81,25-89.37,41.29-100C716.41,623,732.46,626.7,729.59,632.15Z" transform="translate(-48.43 -32.93)" fill="#be2e21"/>
    <path id="Path_247" data-name="Path 247" d="M682.27,586.94,662.41,652l-103.52-3,.84,9.72s81.13,11.83,115.77-4.23l18.6-59.43,163.37.84-31.12-7.32Z" transform="translate(-48.43 -32.93)" fill="#be2e21"/>
    <path id="Path_248" data-name="Path 248" d="M682.27,586.94,662.41,652l-103.52-3,.84,9.72s81.13,11.83,115.77-4.23l18.6-59.43,163.37.84-31.12-7.32Z" transform="translate(-48.43 -32.93)" fill="#fff" opacity="0.1"/>
    <path id="Path_249" data-name="Path 249" d="M196.92,689.47s-55.49,27.89-14.37,54.09l11,2.53s-40.28-29,27-56.62Z" transform="translate(-48.43 -32.93)" opacity="0.1"/>
    <path id="Path_250" data-name="Path 250" d="M198.61,689.47s-55.49,27.89-14.37,54.09l11,2.53s-40.28-29,27-56.62Z" transform="translate(-48.43 -32.93)" fill="#dce0ed"/>
    <ellipse id="Ellipse_32" data-name="Ellipse 32" cx="30.84" cy="52.82" rx="30.84" ry="52.82" transform="translate(693.41 673.16)" fill="#636780"/>
    <ellipse id="Ellipse_33" data-name="Ellipse 33" cx="22.42" cy="42.8" rx="22.42" ry="42.8" transform="translate(700.79 684.32)" opacity="0.1"/>
    <g id="aro-2">
      <ellipse id="Ellipse_34" data-name="Ellipse 34" cx="22.42" cy="42.8" rx="22.42" ry="42.8" transform="translate(700.79 682.63)" fill="#f0f0f4"/>
      <ellipse id="Ellipse_35" data-name="Ellipse 35" cx="2.65" cy="5.28" rx="2.65" ry="5.28" transform="translate(724.63 691.43)" fill="#636780"/>
      <ellipse id="Ellipse_36" data-name="Ellipse 36" cx="2.65" cy="5.28" rx="2.65" ry="5.28" transform="translate(735.23 737.65)" fill="#636780"/>
      <ellipse id="Ellipse_37" data-name="Ellipse 37" cx="2.65" cy="5.28" rx="2.65" ry="5.28" transform="translate(706.65 715.64)" fill="#636780"/>
      <ellipse id="Ellipse_38" data-name="Ellipse 38" cx="2.65" cy="5.28" rx="2.65" ry="5.28" transform="translate(714.41 746.45)" fill="#636780"/>
      <ellipse id="Ellipse_39" data-name="Ellipse 39" cx="2.65" cy="5.28" rx="2.65" ry="5.28" transform="translate(739.01 709.04)" fill="#636780"/>
      <ellipse id="Ellipse_40" data-name="Ellipse 40" cx="7.76" cy="12.54" rx="7.76" ry="12.54" transform="translate(719.52 714.54)" fill="#636780"/>
    </g>
    <path id="Path_251" data-name="Path 251" d="M324.8,524s93.81,3.38,215.49,36.76Z" transform="translate(-48.43 -32.93)" opacity="0.1"/>
    <path id="Path_253" data-name="Path 253" d="M522.84,496l-.06.08a9.54,9.54,0,0,0-2,4.61c-.82,5.34-1.6,16.28,6.17,14.47a24,24,0,0,0,11.58-6.29,9.49,9.49,0,0,0,2.57-7h0a7.3,7.3,0,0,0-3.21-6.1L535,494.11a5,5,0,0,0-2.7-.7l-5,.18a6.24,6.24,0,0,0-4.46,2.41Z" transform="translate(-48.43 -32.93)" fill="#fec2be"/>
    <path id="Path_254" data-name="Path 254" d="M579,404.5l-14.93,74.18L553.5,501l7,13L576,477.5s17-53.5,17-55S579,404.5,579,404.5Z" transform="translate(-48.43 -32.93)" fill="#be2e21"/>
  </g>
</svg>
