<svg xmlns="http://www.w3.org/2000/svg" width="62" height="62" viewBox="0 0 62 62">
  <g id="exito" transform="translate(-1 -1)">
    <path id="Path_1" data-name="Path 1" d="M34,62,46.6,45.2a8,8,0,0,1,12.8,0L62,48.667V62" fill="#559b2d"/>
    <path id="Path_2" data-name="Path 2" d="M50,50l3-3,3,3,4-4-.6-.8a8,8,0,0,0-12.8,0L46,46Z" fill="#e2e7f6"/>
    <path id="Path_3" data-name="Path 3" d="M49.7,48.453l3.8-2.992,2.374,3.182,3.135-3.182-2.992,1.591L53,43.7Z" fill="#fff"/>
    <path id="Path_4" data-name="Path 4" d="M30,62,17.4,45.2a8,8,0,0,0-12.8,0L2,48.667V62" fill="#559b2d"/>
    <path id="Path_5" data-name="Path 5" d="M14,50l-3-3L8,50,4,46l.6-.8a8,8,0,0,1,12.8,0l.6.8Z" fill="#e2e7f6"/>
    <path id="Path_6" data-name="Path 6" d="M14.3,48.453l-3.8-2.992L8.129,48.643,4.994,45.461l2.992,1.591L11,43.7Z" fill="#fff"/>
    <path id="Path_7" data-name="Path 7" d="M54,62,38.4,41.2a8,8,0,0,0-12.8,0L10,62" fill="#6bc13b"/>
    <g id="Group_1" data-name="Group 1">
      <path id="Path_8" data-name="Path 8" d="M1,61H63v2H1Z" fill="#61668c"/>
    </g>
    <path id="Path_9" data-name="Path 9" d="M29,46l3-3,3,3,4-4-.6-.8a8,8,0,0,0-12.8,0L25,42Z" fill="#e2e7f6"/>
    <path id="Path_10" data-name="Path 10" d="M47,2l2,6L44,5" fill="#6bc13b"/>
    <g id="Group_2" data-name="Group 2">
      <path id="Path_11" data-name="Path 11" d="M39.757,4h8.485V6H39.757Z" transform="translate(9.352 32.577) rotate(-45)" fill="#4c506e"/>
    </g>
    <path id="Path_12" data-name="Path 12" d="M17,2,15,8l5-3" fill="#6bc13b"/>
    <g id="Group_3" data-name="Group 3">
      <path id="Path_13" data-name="Path 13" d="M19,.757h2V9.242H19Z" transform="translate(2.322 15.607) rotate(-45)" fill="#4c506e"/>
    </g>
    <path id="Path_14" data-name="Path 14" d="M29,12,24,7l-3,3,7,7V34h8V17l7-7L40,7l-5,5" fill="#546ded"/>
    <path id="Path_15" data-name="Path 15" d="M28,20h4V34H28Z" fill="#4c506e"/>
    <path id="Path_16" data-name="Path 16" d="M32,20h4V34H32Z" fill="#787faa"/>
    <path id="Path_17" data-name="Path 17" d="M32,10a3,3,0,0,1-3-3V5a3,3,0,0,1,6,0V7A3,3,0,0,1,32,10Z" fill="#fbe1ca"/>
    <path id="Path_18" data-name="Path 18" d="M28.7,44.453l3.8-2.992,2.374,3.182,3.135-3.182-2.992,1.591L32,39.7Z" fill="#fff"/>
    <path id="Path_19" data-name="Path 19" d="M23.293,6.293,23,6.586,17.707,1.293a1,1,0,0,0-1.656.39l-2,6a1,1,0,0,0,1.464,1.174l4.33-2.6L21.586,8,20.293,9.293a1,1,0,0,0,0,1.414L27,17.414V34a1,1,0,0,0,1,1h8a1,1,0,0,0,1-1V17.414l6.707-6.707a1,1,0,0,0,0-1.414L42.414,8l1.741-1.741,4.33,2.6a1,1,0,0,0,1.463-1.175l-2-6a1,1,0,0,0-1.656-.39L41,6.586l-.293-.293a1,1,0,0,0-1.414,0l-5,5,1.414,1.414L40,8.414,41.586,10l-6.293,6.293A1,1,0,0,0,35,17v2H29V17a1,1,0,0,0-.293-.707L22.414,10,24,8.414l4.293,4.293,1.414-1.414-5-5a1,1,0,0,0-1.414,0ZM16.8,5.752l.634-1.9.95.95Zm29.758-1.9.634,1.9L45.612,4.8ZM35,21V33H33V23H31V33H29V21Z"/>
    <path id="Path_20" data-name="Path 20" d="M36,7V5a4,4,0,0,0-8,0V7a4,4,0,0,0,8,0ZM30,7V5a2,2,0,0,1,4,0V7a2,2,0,0,1-4,0Z"/>
    <path id="Path_21" data-name="Path 21" d="M45.25,48.667l.858-1.145,3.185,3.185a1,1,0,0,0,1.414,0L53,48.414l2.293,2.293a1,1,0,0,0,1.414,0l3.185-3.185L61.2,49.267l1.6-1.2L60.2,44.6a9,9,0,0,0-14.4,0L44,47l-4.8-6.4a9,9,0,0,0-14.4,0L20,47l-1.8-2.4a9,9,0,0,0-14.4,0L1.2,48.068l1.6,1.2,1.308-1.745,3.185,3.185a1,1,0,0,0,1.414,0L11,48.414l2.293,2.293a1,1,0,0,0,1.414,0l3.185-3.185.858,1.145L9.5,61H1v2H63V61H54.5ZM53,43a7.037,7.037,0,0,1,5.6,2.8l.08.106L56,48.586l-2.293-2.293a1,1,0,0,0-1.414,0L50,48.586l-2.68-2.68.08-.106A7.034,7.034,0,0,1,53,43ZM14,48.586l-2.293-2.293a1,1,0,0,0-1.414,0L8,48.586l-2.68-2.68L5.4,45.8a7,7,0,0,1,11.2,0l.08.106ZM32,39a7.037,7.037,0,0,1,5.6,2.8l.08.106L35,44.586l-2.293-2.293a1,1,0,0,0-1.414,0L29,44.586l-2.68-2.68.08-.106A7.034,7.034,0,0,1,32,39Zm-6.892,4.522,3.185,3.185a1,1,0,0,0,1.414,0L32,44.414l2.293,2.293a1,1,0,0,0,1.414,0l3.185-3.185L52,61H12Z"/>
  </g>
</svg>
